<svg preserveAspectRatio="none" width="100%" height="100%" overflow="visible" style="display: block;" viewBox="0 0 50 46" fill="none" xmlns="http://www.w3.org/2000/svg">
<g id="Icon">
<path id="Vector" d="M45.3125 39.8667H4.6875V42.1667H45.3125V39.8667Z" fill="var(--fill-0, #1A1A1A)"/>
<path id="Vector_2" opacity="0.5" d="M48.4375 42.1667H1.5625V43.7H48.4375V42.1667Z" fill="var(--fill-0, #1A1A1A)"/>
<path id="Vector_3" d="M12.5 18.4H9.375V39.8667H12.5V18.4Z" fill="var(--fill-0, #1A1A1A)"/>
<path id="Vector_4" d="M21.875 18.4H18.75V39.8667H21.875V18.4Z" fill="var(--fill-0, #1A1A1A)"/>
<path id="Vector_5" d="M31.25 18.4H28.125V39.8667H31.25V18.4Z" fill="var(--fill-0, #1A1A1A)"/>
<path id="Vector_6" d="M40.625 18.4H37.5V39.8667H40.625V18.4Z" fill="var(--fill-0, #1A1A1A)"/>
<path id="Vector_7" d="M43.75 16.8667H6.25V19.1667H43.75V16.8667Z" fill="var(--fill-0, #1A1A1A)"/>
<path id="Vector_8" d="M9.375 16.8667C19.7917 7.66667 30.2083 7.66667 40.625 16.8667" stroke="var(--stroke-0, #1A1A1A)" stroke-width="2.5"/>
<path id="Vector_9" d="M25 9.2C25.8629 9.2 26.5625 8.5135 26.5625 7.66667C26.5625 6.81983 25.8629 6.13333 25 6.13333C24.1371 6.13333 23.4375 6.81983 23.4375 7.66667C23.4375 8.5135 24.1371 9.2 25 9.2Z" fill="var(--fill-0, #1A1A1A)"/>
</g>
</svg>
