<svg viewBox="0 0 347 67" fill="none" xmlns="http://www.w3.org/2000/svg">
  <!-- Icon at (0, 7.5), 50x46 -->
  <g transform="translate(0, 7.5)">
    <path d="M45.3125 39.8667H4.6875V42.1667H45.3125V39.8667Z" fill="#1A1A1A"/>
    <path opacity="0.5" d="M48.4375 42.1667H1.5625V43.7H48.4375V42.1667Z" fill="#1A1A1A"/>
    <path d="M12.5 18.4H9.375V39.8667H12.5V18.4Z" fill="#1A1A1A"/>
    <path d="M21.875 18.4H18.75V39.8667H21.875V18.4Z" fill="#1A1A1A"/>
    <path d="M31.25 18.4H28.125V39.8667H31.25V18.4Z" fill="#1A1A1A"/>
    <path d="M40.625 18.4H37.5V39.8667H40.625V18.4Z" fill="#1A1A1A"/>
    <path d="M43.75 16.8667H6.25V19.1667H43.75V16.8667Z" fill="#1A1A1A"/>
    <path d="M9.375 16.8667C19.7917 7.66667 30.2083 7.66667 40.625 16.8667" stroke="#1A1A1A" stroke-width="2.5"/>
    <path d="M25 9.2C25.8629 9.2 26.5625 8.5135 26.5625 7.66667C26.5625 6.81983 25.8629 6.13333 25 6.13333C24.1371 6.13333 23.4375 6.81983 23.4375 7.66667C23.4375 8.5135 24.1371 9.2 25 9.2Z" fill="#1A1A1A"/>
  </g>
  <!-- Text at (76, 16.5), Overpass Mono Medium 36px, tracking 16.8px -->
  <text x="76" y="48" font-family="'Overpass Mono', monospace" font-weight="500" font-size="36" letter-spacing="16.8" fill="#1A1A1A">ROTONDA</text>
</svg>
